# xmcd
# 
# Track frame offsets:
#     150
#     26195
#     53175
#     80408
#     109938
#     140490
# 
# Disc length: 2073
# 
# Revision: 1
# Processed by: cddbd v1.5.2PL0 Copyright (c) Steve Scherf et al.
# Submitted via: BonkEnc v1.0.8
# 
DISCID=4f081706
DTITLE=Sonny Rollins - Newk's Time (1957)
DYEAR=0
DGENRE=Jazz
TTITLE0=Tune Up
TTITLE1=Asiatic Raes
TTITLE2=Wonderful! Wonderful!
TTITLE3=The Surrey With the Fringe on Top
TTITLE4=Blues for Philly Joe
TTITLE5=Namely You
EXTD=
EXTT0=
EXTT1=
EXTT2=
EXTT3=
EXTT4=
EXTT5=
PLAYORDER=
